<mxfile host="app.diagrams.net" modified="2021-10-31T16:04:39.216Z" agent="5.0 (Macintosh; Intel Mac OS X 10_15_7) AppleWebKit/537.36 (KHTML, like Gecko) Chrome/95.0.4638.54 Safari/537.36" etag="pKen8S9AvMG-EuZx8Bw3" version="15.6.3" type="github">
  <diagram id="TaNIDRoXtBbg-zk-9dIS" name="Page-1">
    <mxGraphModel dx="3946" dy="1323" grid="1" gridSize="10" guides="1" tooltips="1" connect="1" arrows="1" fold="1" page="1" pageScale="1" pageWidth="1169" pageHeight="827" math="0" shadow="0">
      <root>
        <mxCell id="0" />
        <mxCell id="1" parent="0" />
        <mxCell id="XYtsFTj6TvHqs7WmzV8f-104" style="edgeStyle=orthogonalEdgeStyle;rounded=0;orthogonalLoop=1;jettySize=auto;html=1;" edge="1" parent="1" source="XYtsFTj6TvHqs7WmzV8f-1" target="XYtsFTj6TvHqs7WmzV8f-3">
          <mxGeometry relative="1" as="geometry">
            <Array as="points">
              <mxPoint x="530" y="120" />
              <mxPoint x="960" y="120" />
            </Array>
          </mxGeometry>
        </mxCell>
        <mxCell id="XYtsFTj6TvHqs7WmzV8f-105" style="edgeStyle=orthogonalEdgeStyle;rounded=0;orthogonalLoop=1;jettySize=auto;html=1;entryX=0.5;entryY=0;entryDx=0;entryDy=0;" edge="1" parent="1" source="XYtsFTj6TvHqs7WmzV8f-1" target="XYtsFTj6TvHqs7WmzV8f-66">
          <mxGeometry relative="1" as="geometry">
            <Array as="points">
              <mxPoint x="530" y="120" />
              <mxPoint x="380" y="120" />
            </Array>
          </mxGeometry>
        </mxCell>
        <mxCell id="XYtsFTj6TvHqs7WmzV8f-106" style="edgeStyle=orthogonalEdgeStyle;rounded=0;orthogonalLoop=1;jettySize=auto;html=1;entryX=0.433;entryY=-0.033;entryDx=0;entryDy=0;entryPerimeter=0;" edge="1" parent="1" source="XYtsFTj6TvHqs7WmzV8f-1" target="XYtsFTj6TvHqs7WmzV8f-63">
          <mxGeometry relative="1" as="geometry">
            <Array as="points">
              <mxPoint x="530" y="120" />
              <mxPoint x="22" y="120" />
            </Array>
          </mxGeometry>
        </mxCell>
        <mxCell id="XYtsFTj6TvHqs7WmzV8f-107" style="edgeStyle=orthogonalEdgeStyle;rounded=0;orthogonalLoop=1;jettySize=auto;html=1;entryX=0.5;entryY=0;entryDx=0;entryDy=0;" edge="1" parent="1" source="XYtsFTj6TvHqs7WmzV8f-1" target="XYtsFTj6TvHqs7WmzV8f-56">
          <mxGeometry relative="1" as="geometry">
            <Array as="points">
              <mxPoint x="530" y="120" />
              <mxPoint x="-220" y="120" />
            </Array>
          </mxGeometry>
        </mxCell>
        <mxCell id="XYtsFTj6TvHqs7WmzV8f-1" value="Spring Boot" style="rounded=0;whiteSpace=wrap;html=1;" vertex="1" parent="1">
          <mxGeometry x="470" y="40" width="120" height="60" as="geometry" />
        </mxCell>
        <mxCell id="XYtsFTj6TvHqs7WmzV8f-2" value="What have we learned about Spring Boot" style="text;html=1;strokeColor=none;fillColor=none;align=center;verticalAlign=middle;whiteSpace=wrap;rounded=0;" vertex="1" parent="1">
          <mxGeometry x="370" width="320" height="30" as="geometry" />
        </mxCell>
        <mxCell id="XYtsFTj6TvHqs7WmzV8f-3" value="Annotation&lt;span style=&quot;color: rgba(0 , 0 , 0 , 0) ; font-family: monospace ; font-size: 0px&quot;&gt;%3CmxGraphModel%3E%3Croot%3E%3CmxCell%20id%3D%220%22%2F%3E%3CmxCell%20id%3D%221%22%20parent%3D%220%22%2F%3E%3CmxCell%20id%3D%222%22%20value%3D%22Spring%20Boot%22%20style%3D%22rounded%3D0%3BwhiteSpace%3Dwrap%3Bhtml%3D1%3B%22%20vertex%3D%221%22%20parent%3D%221%22%3E%3CmxGeometry%20x%3D%22465%22%20y%3D%2290%22%20width%3D%22120%22%20height%3D%2260%22%20as%3D%22geometry%22%2F%3E%3C%2FmxCell%3E%3C%2Froot%3E%3C%2FmxGraphModel%3E&lt;/span&gt;" style="rounded=0;whiteSpace=wrap;html=1;" vertex="1" parent="1">
          <mxGeometry x="900" y="140" width="120" height="60" as="geometry" />
        </mxCell>
        <mxCell id="XYtsFTj6TvHqs7WmzV8f-68" style="edgeStyle=orthogonalEdgeStyle;rounded=0;orthogonalLoop=1;jettySize=auto;html=1;" edge="1" parent="1" source="XYtsFTj6TvHqs7WmzV8f-4" target="XYtsFTj6TvHqs7WmzV8f-5">
          <mxGeometry relative="1" as="geometry" />
        </mxCell>
        <mxCell id="XYtsFTj6TvHqs7WmzV8f-4" value="Controller" style="rounded=0;whiteSpace=wrap;html=1;" vertex="1" parent="1">
          <mxGeometry x="320" y="277" width="120" height="60" as="geometry" />
        </mxCell>
        <mxCell id="XYtsFTj6TvHqs7WmzV8f-69" style="edgeStyle=orthogonalEdgeStyle;rounded=0;orthogonalLoop=1;jettySize=auto;html=1;entryX=0.5;entryY=0;entryDx=0;entryDy=0;" edge="1" parent="1" source="XYtsFTj6TvHqs7WmzV8f-5" target="XYtsFTj6TvHqs7WmzV8f-6">
          <mxGeometry relative="1" as="geometry" />
        </mxCell>
        <mxCell id="XYtsFTj6TvHqs7WmzV8f-5" value="Service" style="rounded=0;whiteSpace=wrap;html=1;" vertex="1" parent="1">
          <mxGeometry x="320" y="430" width="120" height="60" as="geometry" />
        </mxCell>
        <mxCell id="XYtsFTj6TvHqs7WmzV8f-70" style="edgeStyle=orthogonalEdgeStyle;rounded=0;orthogonalLoop=1;jettySize=auto;html=1;entryX=0.5;entryY=0;entryDx=0;entryDy=0;" edge="1" parent="1" source="XYtsFTj6TvHqs7WmzV8f-6" target="XYtsFTj6TvHqs7WmzV8f-9">
          <mxGeometry relative="1" as="geometry" />
        </mxCell>
        <mxCell id="XYtsFTj6TvHqs7WmzV8f-6" value="Repository" style="rounded=0;whiteSpace=wrap;html=1;" vertex="1" parent="1">
          <mxGeometry x="320" y="540" width="120" height="60" as="geometry" />
        </mxCell>
        <mxCell id="XYtsFTj6TvHqs7WmzV8f-86" style="edgeStyle=orthogonalEdgeStyle;rounded=0;orthogonalLoop=1;jettySize=auto;html=1;" edge="1" parent="1" source="XYtsFTj6TvHqs7WmzV8f-7" target="XYtsFTj6TvHqs7WmzV8f-4">
          <mxGeometry relative="1" as="geometry" />
        </mxCell>
        <mxCell id="XYtsFTj6TvHqs7WmzV8f-92" style="edgeStyle=orthogonalEdgeStyle;rounded=0;orthogonalLoop=1;jettySize=auto;html=1;entryX=1;entryY=0.617;entryDx=0;entryDy=0;entryPerimeter=0;" edge="1" parent="1" source="XYtsFTj6TvHqs7WmzV8f-7" target="XYtsFTj6TvHqs7WmzV8f-51">
          <mxGeometry relative="1" as="geometry" />
        </mxCell>
        <mxCell id="XYtsFTj6TvHqs7WmzV8f-7" value="API test" style="rounded=0;whiteSpace=wrap;html=1;" vertex="1" parent="1">
          <mxGeometry x="140" y="277" width="120" height="60" as="geometry" />
        </mxCell>
        <mxCell id="XYtsFTj6TvHqs7WmzV8f-88" style="edgeStyle=orthogonalEdgeStyle;rounded=0;orthogonalLoop=1;jettySize=auto;html=1;entryX=0;entryY=0.5;entryDx=0;entryDy=0;" edge="1" parent="1" source="XYtsFTj6TvHqs7WmzV8f-8" target="XYtsFTj6TvHqs7WmzV8f-5">
          <mxGeometry relative="1" as="geometry" />
        </mxCell>
        <mxCell id="XYtsFTj6TvHqs7WmzV8f-97" style="edgeStyle=orthogonalEdgeStyle;rounded=0;orthogonalLoop=1;jettySize=auto;html=1;entryX=1.017;entryY=0.883;entryDx=0;entryDy=0;entryPerimeter=0;" edge="1" parent="1" source="XYtsFTj6TvHqs7WmzV8f-8" target="XYtsFTj6TvHqs7WmzV8f-51">
          <mxGeometry relative="1" as="geometry">
            <Array as="points">
              <mxPoint x="120" y="460" />
              <mxPoint x="120" y="323" />
            </Array>
          </mxGeometry>
        </mxCell>
        <mxCell id="XYtsFTj6TvHqs7WmzV8f-8" value="Unit Test" style="rounded=0;whiteSpace=wrap;html=1;" vertex="1" parent="1">
          <mxGeometry x="140" y="430" width="120" height="60" as="geometry" />
        </mxCell>
        <mxCell id="XYtsFTj6TvHqs7WmzV8f-71" style="edgeStyle=orthogonalEdgeStyle;rounded=0;orthogonalLoop=1;jettySize=auto;html=1;entryX=0.5;entryY=0;entryDx=0;entryDy=0;" edge="1" parent="1" source="XYtsFTj6TvHqs7WmzV8f-9" target="XYtsFTj6TvHqs7WmzV8f-11">
          <mxGeometry relative="1" as="geometry" />
        </mxCell>
        <mxCell id="XYtsFTj6TvHqs7WmzV8f-9" value="Jpa repository" style="rounded=0;whiteSpace=wrap;html=1;" vertex="1" parent="1">
          <mxGeometry x="320" y="660" width="120" height="60" as="geometry" />
        </mxCell>
        <mxCell id="XYtsFTj6TvHqs7WmzV8f-85" style="edgeStyle=orthogonalEdgeStyle;rounded=0;orthogonalLoop=1;jettySize=auto;html=1;" edge="1" parent="1" source="XYtsFTj6TvHqs7WmzV8f-10" target="XYtsFTj6TvHqs7WmzV8f-55">
          <mxGeometry relative="1" as="geometry" />
        </mxCell>
        <mxCell id="XYtsFTj6TvHqs7WmzV8f-10" value="flyway" style="rounded=0;whiteSpace=wrap;html=1;" vertex="1" parent="1">
          <mxGeometry x="-40" y="1020" width="120" height="60" as="geometry" />
        </mxCell>
        <mxCell id="XYtsFTj6TvHqs7WmzV8f-72" style="edgeStyle=orthogonalEdgeStyle;rounded=0;orthogonalLoop=1;jettySize=auto;html=1;entryX=0;entryY=0.5;entryDx=0;entryDy=0;exitX=0.5;exitY=1;exitDx=0;exitDy=0;" edge="1" parent="1" source="XYtsFTj6TvHqs7WmzV8f-11" target="XYtsFTj6TvHqs7WmzV8f-54">
          <mxGeometry relative="1" as="geometry">
            <Array as="points">
              <mxPoint x="380" y="930" />
            </Array>
          </mxGeometry>
        </mxCell>
        <mxCell id="XYtsFTj6TvHqs7WmzV8f-73" style="edgeStyle=orthogonalEdgeStyle;rounded=0;orthogonalLoop=1;jettySize=auto;html=1;entryX=1;entryY=0.5;entryDx=0;entryDy=0;" edge="1" parent="1" source="XYtsFTj6TvHqs7WmzV8f-11" target="XYtsFTj6TvHqs7WmzV8f-53">
          <mxGeometry relative="1" as="geometry">
            <Array as="points">
              <mxPoint x="380" y="930" />
            </Array>
          </mxGeometry>
        </mxCell>
        <mxCell id="XYtsFTj6TvHqs7WmzV8f-11" value="Database" style="rounded=0;whiteSpace=wrap;html=1;" vertex="1" parent="1">
          <mxGeometry x="320" y="780" width="120" height="60" as="geometry" />
        </mxCell>
        <mxCell id="XYtsFTj6TvHqs7WmzV8f-31" style="edgeStyle=orthogonalEdgeStyle;rounded=0;orthogonalLoop=1;jettySize=auto;html=1;entryX=0;entryY=0.5;entryDx=0;entryDy=0;" edge="1" parent="1" source="XYtsFTj6TvHqs7WmzV8f-12" target="XYtsFTj6TvHqs7WmzV8f-21">
          <mxGeometry relative="1" as="geometry" />
        </mxCell>
        <mxCell id="XYtsFTj6TvHqs7WmzV8f-32" style="edgeStyle=orthogonalEdgeStyle;rounded=0;orthogonalLoop=1;jettySize=auto;html=1;entryX=0;entryY=0.5;entryDx=0;entryDy=0;" edge="1" parent="1" source="XYtsFTj6TvHqs7WmzV8f-12" target="XYtsFTj6TvHqs7WmzV8f-20">
          <mxGeometry relative="1" as="geometry" />
        </mxCell>
        <mxCell id="XYtsFTj6TvHqs7WmzV8f-33" style="edgeStyle=orthogonalEdgeStyle;rounded=0;orthogonalLoop=1;jettySize=auto;html=1;entryX=0;entryY=0.5;entryDx=0;entryDy=0;" edge="1" parent="1" source="XYtsFTj6TvHqs7WmzV8f-12" target="XYtsFTj6TvHqs7WmzV8f-19">
          <mxGeometry relative="1" as="geometry" />
        </mxCell>
        <mxCell id="XYtsFTj6TvHqs7WmzV8f-34" style="edgeStyle=orthogonalEdgeStyle;rounded=0;orthogonalLoop=1;jettySize=auto;html=1;entryX=0;entryY=0.5;entryDx=0;entryDy=0;" edge="1" parent="1" source="XYtsFTj6TvHqs7WmzV8f-12" target="XYtsFTj6TvHqs7WmzV8f-18">
          <mxGeometry relative="1" as="geometry" />
        </mxCell>
        <mxCell id="XYtsFTj6TvHqs7WmzV8f-35" style="edgeStyle=orthogonalEdgeStyle;rounded=0;orthogonalLoop=1;jettySize=auto;html=1;entryX=0;entryY=0.5;entryDx=0;entryDy=0;" edge="1" parent="1" source="XYtsFTj6TvHqs7WmzV8f-12" target="XYtsFTj6TvHqs7WmzV8f-17">
          <mxGeometry relative="1" as="geometry" />
        </mxCell>
        <mxCell id="XYtsFTj6TvHqs7WmzV8f-12" value="Structure Type" style="rounded=0;whiteSpace=wrap;html=1;" vertex="1" parent="1">
          <mxGeometry x="585" y="230" width="120" height="60" as="geometry" />
        </mxCell>
        <mxCell id="XYtsFTj6TvHqs7WmzV8f-36" style="edgeStyle=orthogonalEdgeStyle;rounded=0;orthogonalLoop=1;jettySize=auto;html=1;entryX=0;entryY=0.5;entryDx=0;entryDy=0;" edge="1" parent="1" source="XYtsFTj6TvHqs7WmzV8f-13" target="XYtsFTj6TvHqs7WmzV8f-26">
          <mxGeometry relative="1" as="geometry" />
        </mxCell>
        <mxCell id="XYtsFTj6TvHqs7WmzV8f-37" style="edgeStyle=orthogonalEdgeStyle;rounded=0;orthogonalLoop=1;jettySize=auto;html=1;entryX=0;entryY=0.5;entryDx=0;entryDy=0;" edge="1" parent="1" source="XYtsFTj6TvHqs7WmzV8f-13" target="XYtsFTj6TvHqs7WmzV8f-25">
          <mxGeometry relative="1" as="geometry" />
        </mxCell>
        <mxCell id="XYtsFTj6TvHqs7WmzV8f-38" style="edgeStyle=orthogonalEdgeStyle;rounded=0;orthogonalLoop=1;jettySize=auto;html=1;entryX=0;entryY=0.5;entryDx=0;entryDy=0;" edge="1" parent="1" source="XYtsFTj6TvHqs7WmzV8f-13" target="XYtsFTj6TvHqs7WmzV8f-24">
          <mxGeometry relative="1" as="geometry" />
        </mxCell>
        <mxCell id="XYtsFTj6TvHqs7WmzV8f-39" style="edgeStyle=orthogonalEdgeStyle;rounded=0;orthogonalLoop=1;jettySize=auto;html=1;entryX=0;entryY=0.5;entryDx=0;entryDy=0;" edge="1" parent="1" source="XYtsFTj6TvHqs7WmzV8f-13" target="XYtsFTj6TvHqs7WmzV8f-22">
          <mxGeometry relative="1" as="geometry" />
        </mxCell>
        <mxCell id="XYtsFTj6TvHqs7WmzV8f-40" style="edgeStyle=orthogonalEdgeStyle;rounded=0;orthogonalLoop=1;jettySize=auto;html=1;entryX=0;entryY=0.5;entryDx=0;entryDy=0;" edge="1" parent="1" source="XYtsFTj6TvHqs7WmzV8f-13" target="XYtsFTj6TvHqs7WmzV8f-23">
          <mxGeometry relative="1" as="geometry" />
        </mxCell>
        <mxCell id="XYtsFTj6TvHqs7WmzV8f-13" value="Mapping" style="rounded=0;whiteSpace=wrap;html=1;" vertex="1" parent="1">
          <mxGeometry x="860" y="230" width="120" height="60" as="geometry" />
        </mxCell>
        <mxCell id="XYtsFTj6TvHqs7WmzV8f-41" style="edgeStyle=orthogonalEdgeStyle;rounded=0;orthogonalLoop=1;jettySize=auto;html=1;entryX=0.5;entryY=0;entryDx=0;entryDy=0;" edge="1" parent="1" source="XYtsFTj6TvHqs7WmzV8f-14" target="XYtsFTj6TvHqs7WmzV8f-27">
          <mxGeometry relative="1" as="geometry" />
        </mxCell>
        <mxCell id="XYtsFTj6TvHqs7WmzV8f-14" value="URL" style="rounded=0;whiteSpace=wrap;html=1;" vertex="1" parent="1">
          <mxGeometry x="1169" y="230" width="120" height="60" as="geometry" />
        </mxCell>
        <mxCell id="XYtsFTj6TvHqs7WmzV8f-42" style="edgeStyle=orthogonalEdgeStyle;rounded=0;orthogonalLoop=1;jettySize=auto;html=1;entryX=0.5;entryY=0;entryDx=0;entryDy=0;" edge="1" parent="1" source="XYtsFTj6TvHqs7WmzV8f-15" target="XYtsFTj6TvHqs7WmzV8f-28">
          <mxGeometry relative="1" as="geometry" />
        </mxCell>
        <mxCell id="XYtsFTj6TvHqs7WmzV8f-15" value="Query" style="rounded=0;whiteSpace=wrap;html=1;" vertex="1" parent="1">
          <mxGeometry x="1349" y="230" width="120" height="60" as="geometry" />
        </mxCell>
        <mxCell id="XYtsFTj6TvHqs7WmzV8f-43" style="edgeStyle=orthogonalEdgeStyle;rounded=0;orthogonalLoop=1;jettySize=auto;html=1;" edge="1" parent="1" source="XYtsFTj6TvHqs7WmzV8f-16" target="XYtsFTj6TvHqs7WmzV8f-29">
          <mxGeometry relative="1" as="geometry" />
        </mxCell>
        <mxCell id="XYtsFTj6TvHqs7WmzV8f-16" value="Request Body" style="rounded=0;whiteSpace=wrap;html=1;" vertex="1" parent="1">
          <mxGeometry x="1519" y="230" width="120" height="60" as="geometry" />
        </mxCell>
        <mxCell id="XYtsFTj6TvHqs7WmzV8f-17" value="@SpringBootApplication" style="rounded=0;whiteSpace=wrap;html=1;" vertex="1" parent="1">
          <mxGeometry x="670" y="330" width="170" height="60" as="geometry" />
        </mxCell>
        <mxCell id="XYtsFTj6TvHqs7WmzV8f-18" value="@RestController" style="rounded=0;whiteSpace=wrap;html=1;" vertex="1" parent="1">
          <mxGeometry x="670" y="414" width="170" height="60" as="geometry" />
        </mxCell>
        <mxCell id="XYtsFTj6TvHqs7WmzV8f-19" value="@Service" style="rounded=0;whiteSpace=wrap;html=1;" vertex="1" parent="1">
          <mxGeometry x="670" y="500" width="170" height="60" as="geometry" />
        </mxCell>
        <mxCell id="XYtsFTj6TvHqs7WmzV8f-20" value="@Repostiory" style="rounded=0;whiteSpace=wrap;html=1;" vertex="1" parent="1">
          <mxGeometry x="670" y="580" width="170" height="60" as="geometry" />
        </mxCell>
        <mxCell id="XYtsFTj6TvHqs7WmzV8f-21" value="@Entity" style="rounded=0;whiteSpace=wrap;html=1;" vertex="1" parent="1">
          <mxGeometry x="670" y="660" width="170" height="60" as="geometry" />
        </mxCell>
        <mxCell id="XYtsFTj6TvHqs7WmzV8f-22" value="@PostMapping" style="rounded=0;whiteSpace=wrap;html=1;" vertex="1" parent="1">
          <mxGeometry x="950" y="420" width="170" height="60" as="geometry" />
        </mxCell>
        <mxCell id="XYtsFTj6TvHqs7WmzV8f-23" value="@GetMapping" style="rounded=0;whiteSpace=wrap;html=1;" vertex="1" parent="1">
          <mxGeometry x="950" y="330" width="170" height="60" as="geometry" />
        </mxCell>
        <mxCell id="XYtsFTj6TvHqs7WmzV8f-24" value="@PutMapping" style="rounded=0;whiteSpace=wrap;html=1;" vertex="1" parent="1">
          <mxGeometry x="950" y="500" width="170" height="60" as="geometry" />
        </mxCell>
        <mxCell id="XYtsFTj6TvHqs7WmzV8f-25" value="@DeleteMapping" style="rounded=0;whiteSpace=wrap;html=1;" vertex="1" parent="1">
          <mxGeometry x="950" y="580" width="170" height="60" as="geometry" />
        </mxCell>
        <mxCell id="XYtsFTj6TvHqs7WmzV8f-26" value="@RequestMapping" style="rounded=0;whiteSpace=wrap;html=1;" vertex="1" parent="1">
          <mxGeometry x="950" y="660" width="170" height="60" as="geometry" />
        </mxCell>
        <mxCell id="XYtsFTj6TvHqs7WmzV8f-27" value="@PathVariable" style="rounded=0;whiteSpace=wrap;html=1;" vertex="1" parent="1">
          <mxGeometry x="1169" y="340" width="120" height="60" as="geometry" />
        </mxCell>
        <mxCell id="XYtsFTj6TvHqs7WmzV8f-28" value="@RequestionParam" style="rounded=0;whiteSpace=wrap;html=1;" vertex="1" parent="1">
          <mxGeometry x="1349" y="340" width="120" height="60" as="geometry" />
        </mxCell>
        <mxCell id="XYtsFTj6TvHqs7WmzV8f-44" style="edgeStyle=orthogonalEdgeStyle;rounded=0;orthogonalLoop=1;jettySize=auto;html=1;entryX=0;entryY=0.5;entryDx=0;entryDy=0;" edge="1" parent="1" source="XYtsFTj6TvHqs7WmzV8f-29" target="XYtsFTj6TvHqs7WmzV8f-30">
          <mxGeometry relative="1" as="geometry" />
        </mxCell>
        <mxCell id="XYtsFTj6TvHqs7WmzV8f-29" value="@ResponseStatus" style="rounded=0;whiteSpace=wrap;html=1;" vertex="1" parent="1">
          <mxGeometry x="1519" y="340" width="121" height="60" as="geometry" />
        </mxCell>
        <mxCell id="XYtsFTj6TvHqs7WmzV8f-30" value="Http Status Code" style="rounded=0;whiteSpace=wrap;html=1;" vertex="1" parent="1">
          <mxGeometry x="1710" y="340" width="121" height="60" as="geometry" />
        </mxCell>
        <mxCell id="XYtsFTj6TvHqs7WmzV8f-45" value="relate to" style="text;html=1;strokeColor=none;fillColor=none;align=center;verticalAlign=middle;whiteSpace=wrap;rounded=0;" vertex="1" parent="1">
          <mxGeometry x="1640" y="410" width="60" height="30" as="geometry" />
        </mxCell>
        <mxCell id="XYtsFTj6TvHqs7WmzV8f-46" value="has" style="text;html=1;strokeColor=none;fillColor=none;align=center;verticalAlign=middle;whiteSpace=wrap;rounded=0;" vertex="1" parent="1">
          <mxGeometry x="1510" y="300" width="60" height="30" as="geometry" />
        </mxCell>
        <mxCell id="XYtsFTj6TvHqs7WmzV8f-47" value="has" style="text;html=1;strokeColor=none;fillColor=none;align=center;verticalAlign=middle;whiteSpace=wrap;rounded=0;" vertex="1" parent="1">
          <mxGeometry x="1349" y="300" width="60" height="30" as="geometry" />
        </mxCell>
        <mxCell id="XYtsFTj6TvHqs7WmzV8f-48" value="has" style="text;html=1;strokeColor=none;fillColor=none;align=center;verticalAlign=middle;whiteSpace=wrap;rounded=0;" vertex="1" parent="1">
          <mxGeometry x="1180" y="300" width="60" height="30" as="geometry" />
        </mxCell>
        <mxCell id="XYtsFTj6TvHqs7WmzV8f-49" value="has" style="text;html=1;strokeColor=none;fillColor=none;align=center;verticalAlign=middle;whiteSpace=wrap;rounded=0;" vertex="1" parent="1">
          <mxGeometry x="870" y="300" width="60" height="30" as="geometry" />
        </mxCell>
        <mxCell id="XYtsFTj6TvHqs7WmzV8f-50" value="has" style="text;html=1;strokeColor=none;fillColor=none;align=center;verticalAlign=middle;whiteSpace=wrap;rounded=0;" vertex="1" parent="1">
          <mxGeometry x="590" y="300" width="60" height="30" as="geometry" />
        </mxCell>
        <mxCell id="XYtsFTj6TvHqs7WmzV8f-65" style="edgeStyle=orthogonalEdgeStyle;rounded=0;orthogonalLoop=1;jettySize=auto;html=1;entryX=0.5;entryY=0;entryDx=0;entryDy=0;" edge="1" parent="1" source="XYtsFTj6TvHqs7WmzV8f-51" target="XYtsFTj6TvHqs7WmzV8f-52">
          <mxGeometry relative="1" as="geometry" />
        </mxCell>
        <mxCell id="XYtsFTj6TvHqs7WmzV8f-51" value="Exception" style="rounded=0;whiteSpace=wrap;html=1;" vertex="1" parent="1">
          <mxGeometry x="-30" y="270" width="120" height="60" as="geometry" />
        </mxCell>
        <mxCell id="XYtsFTj6TvHqs7WmzV8f-52" value="Advice" style="rounded=0;whiteSpace=wrap;html=1;" vertex="1" parent="1">
          <mxGeometry x="-30" y="384" width="120" height="60" as="geometry" />
        </mxCell>
        <mxCell id="XYtsFTj6TvHqs7WmzV8f-81" style="edgeStyle=orthogonalEdgeStyle;rounded=0;orthogonalLoop=1;jettySize=auto;html=1;entryX=0.5;entryY=0;entryDx=0;entryDy=0;" edge="1" parent="1" source="XYtsFTj6TvHqs7WmzV8f-53" target="XYtsFTj6TvHqs7WmzV8f-55">
          <mxGeometry relative="1" as="geometry" />
        </mxCell>
        <mxCell id="XYtsFTj6TvHqs7WmzV8f-53" value="Jdbc" style="rounded=0;whiteSpace=wrap;html=1;" vertex="1" parent="1">
          <mxGeometry x="160" y="900" width="120" height="60" as="geometry" />
        </mxCell>
        <mxCell id="XYtsFTj6TvHqs7WmzV8f-54" value="H2" style="rounded=0;whiteSpace=wrap;html=1;" vertex="1" parent="1">
          <mxGeometry x="500" y="900" width="120" height="60" as="geometry" />
        </mxCell>
        <mxCell id="XYtsFTj6TvHqs7WmzV8f-55" value="Database migration" style="rounded=0;whiteSpace=wrap;html=1;" vertex="1" parent="1">
          <mxGeometry x="160" y="1020" width="120" height="60" as="geometry" />
        </mxCell>
        <mxCell id="XYtsFTj6TvHqs7WmzV8f-60" style="edgeStyle=orthogonalEdgeStyle;rounded=0;orthogonalLoop=1;jettySize=auto;html=1;entryX=0;entryY=0.5;entryDx=0;entryDy=0;" edge="1" parent="1" source="XYtsFTj6TvHqs7WmzV8f-56" target="XYtsFTj6TvHqs7WmzV8f-59">
          <mxGeometry relative="1" as="geometry" />
        </mxCell>
        <mxCell id="XYtsFTj6TvHqs7WmzV8f-61" style="edgeStyle=orthogonalEdgeStyle;rounded=0;orthogonalLoop=1;jettySize=auto;html=1;entryX=0;entryY=0.5;entryDx=0;entryDy=0;" edge="1" parent="1" source="XYtsFTj6TvHqs7WmzV8f-56" target="XYtsFTj6TvHqs7WmzV8f-58">
          <mxGeometry relative="1" as="geometry" />
        </mxCell>
        <mxCell id="XYtsFTj6TvHqs7WmzV8f-62" style="edgeStyle=orthogonalEdgeStyle;rounded=0;orthogonalLoop=1;jettySize=auto;html=1;entryX=0;entryY=0.5;entryDx=0;entryDy=0;" edge="1" parent="1" source="XYtsFTj6TvHqs7WmzV8f-56" target="XYtsFTj6TvHqs7WmzV8f-57">
          <mxGeometry relative="1" as="geometry" />
        </mxCell>
        <mxCell id="XYtsFTj6TvHqs7WmzV8f-56" value="Configuration" style="rounded=0;whiteSpace=wrap;html=1;" vertex="1" parent="1">
          <mxGeometry x="-280" y="150" width="120" height="60" as="geometry" />
        </mxCell>
        <mxCell id="XYtsFTj6TvHqs7WmzV8f-57" value="Gradle" style="rounded=0;whiteSpace=wrap;html=1;" vertex="1" parent="1">
          <mxGeometry x="-200" y="260" width="120" height="60" as="geometry" />
        </mxCell>
        <mxCell id="XYtsFTj6TvHqs7WmzV8f-58" value="yml file" style="rounded=0;whiteSpace=wrap;html=1;" vertex="1" parent="1">
          <mxGeometry x="-200" y="350" width="120" height="60" as="geometry" />
        </mxCell>
        <mxCell id="XYtsFTj6TvHqs7WmzV8f-59" value="Properties&amp;nbsp;" style="rounded=0;whiteSpace=wrap;html=1;" vertex="1" parent="1">
          <mxGeometry x="-200" y="430" width="120" height="60" as="geometry" />
        </mxCell>
        <mxCell id="XYtsFTj6TvHqs7WmzV8f-64" style="edgeStyle=orthogonalEdgeStyle;rounded=0;orthogonalLoop=1;jettySize=auto;html=1;entryX=0.5;entryY=0;entryDx=0;entryDy=0;" edge="1" parent="1" source="XYtsFTj6TvHqs7WmzV8f-63" target="XYtsFTj6TvHqs7WmzV8f-51">
          <mxGeometry relative="1" as="geometry" />
        </mxCell>
        <mxCell id="XYtsFTj6TvHqs7WmzV8f-63" value="Error Control" style="rounded=0;whiteSpace=wrap;html=1;" vertex="1" parent="1">
          <mxGeometry x="-30" y="150" width="120" height="60" as="geometry" />
        </mxCell>
        <mxCell id="XYtsFTj6TvHqs7WmzV8f-67" style="edgeStyle=orthogonalEdgeStyle;rounded=0;orthogonalLoop=1;jettySize=auto;html=1;entryX=0.5;entryY=0;entryDx=0;entryDy=0;" edge="1" parent="1" source="XYtsFTj6TvHqs7WmzV8f-66" target="XYtsFTj6TvHqs7WmzV8f-4">
          <mxGeometry relative="1" as="geometry" />
        </mxCell>
        <mxCell id="XYtsFTj6TvHqs7WmzV8f-66" value="Structure" style="rounded=0;whiteSpace=wrap;html=1;" vertex="1" parent="1">
          <mxGeometry x="320" y="150" width="120" height="60" as="geometry" />
        </mxCell>
        <mxCell id="XYtsFTj6TvHqs7WmzV8f-74" value="compose" style="text;html=1;strokeColor=none;fillColor=none;align=center;verticalAlign=middle;whiteSpace=wrap;rounded=0;" vertex="1" parent="1">
          <mxGeometry x="400" y="220" width="60" height="30" as="geometry" />
        </mxCell>
        <mxCell id="XYtsFTj6TvHqs7WmzV8f-75" value="access" style="text;html=1;strokeColor=none;fillColor=none;align=center;verticalAlign=middle;whiteSpace=wrap;rounded=0;" vertex="1" parent="1">
          <mxGeometry x="400" y="360" width="60" height="30" as="geometry" />
        </mxCell>
        <mxCell id="XYtsFTj6TvHqs7WmzV8f-76" value="access" style="text;html=1;strokeColor=none;fillColor=none;align=center;verticalAlign=middle;whiteSpace=wrap;rounded=0;" vertex="1" parent="1">
          <mxGeometry x="400" y="500" width="60" height="30" as="geometry" />
        </mxCell>
        <mxCell id="XYtsFTj6TvHqs7WmzV8f-77" value="access" style="text;html=1;strokeColor=none;fillColor=none;align=center;verticalAlign=middle;whiteSpace=wrap;rounded=0;" vertex="1" parent="1">
          <mxGeometry x="400" y="610" width="60" height="30" as="geometry" />
        </mxCell>
        <mxCell id="XYtsFTj6TvHqs7WmzV8f-78" value="access" style="text;html=1;strokeColor=none;fillColor=none;align=center;verticalAlign=middle;whiteSpace=wrap;rounded=0;" vertex="1" parent="1">
          <mxGeometry x="400" y="730" width="60" height="30" as="geometry" />
        </mxCell>
        <mxCell id="XYtsFTj6TvHqs7WmzV8f-79" value="test DB" style="text;html=1;strokeColor=none;fillColor=none;align=center;verticalAlign=middle;whiteSpace=wrap;rounded=0;" vertex="1" parent="1">
          <mxGeometry x="410" y="890" width="60" height="30" as="geometry" />
        </mxCell>
        <mxCell id="XYtsFTj6TvHqs7WmzV8f-80" value="DB" style="text;html=1;strokeColor=none;fillColor=none;align=center;verticalAlign=middle;whiteSpace=wrap;rounded=0;" vertex="1" parent="1">
          <mxGeometry x="300" y="890" width="60" height="30" as="geometry" />
        </mxCell>
        <mxCell id="XYtsFTj6TvHqs7WmzV8f-82" value="implement&amp;nbsp;" style="text;html=1;strokeColor=none;fillColor=none;align=center;verticalAlign=middle;whiteSpace=wrap;rounded=0;" vertex="1" parent="1">
          <mxGeometry x="230" y="970" width="60" height="30" as="geometry" />
        </mxCell>
        <mxCell id="XYtsFTj6TvHqs7WmzV8f-84" value="manage" style="text;html=1;strokeColor=none;fillColor=none;align=center;verticalAlign=middle;whiteSpace=wrap;rounded=0;" vertex="1" parent="1">
          <mxGeometry x="90" y="1010" width="60" height="30" as="geometry" />
        </mxCell>
        <mxCell id="XYtsFTj6TvHqs7WmzV8f-87" value="include" style="text;html=1;strokeColor=none;fillColor=none;align=center;verticalAlign=middle;whiteSpace=wrap;rounded=0;" vertex="1" parent="1">
          <mxGeometry x="260" y="270" width="60" height="30" as="geometry" />
        </mxCell>
        <mxCell id="XYtsFTj6TvHqs7WmzV8f-89" value="include" style="text;html=1;strokeColor=none;fillColor=none;align=center;verticalAlign=middle;whiteSpace=wrap;rounded=0;" vertex="1" parent="1">
          <mxGeometry x="260" y="429" width="60" height="30" as="geometry" />
        </mxCell>
        <mxCell id="XYtsFTj6TvHqs7WmzV8f-90" value="compose" style="text;html=1;strokeColor=none;fillColor=none;align=center;verticalAlign=middle;whiteSpace=wrap;rounded=0;" vertex="1" parent="1">
          <mxGeometry x="30" y="220" width="60" height="30" as="geometry" />
        </mxCell>
        <mxCell id="XYtsFTj6TvHqs7WmzV8f-91" value="extends" style="text;html=1;strokeColor=none;fillColor=none;align=center;verticalAlign=middle;whiteSpace=wrap;rounded=0;" vertex="1" parent="1">
          <mxGeometry x="30" y="340" width="60" height="30" as="geometry" />
        </mxCell>
        <mxCell id="XYtsFTj6TvHqs7WmzV8f-93" value="throw" style="text;html=1;strokeColor=none;fillColor=none;align=center;verticalAlign=middle;whiteSpace=wrap;rounded=0;" vertex="1" parent="1">
          <mxGeometry x="80" y="270" width="60" height="30" as="geometry" />
        </mxCell>
        <mxCell id="XYtsFTj6TvHqs7WmzV8f-99" value="throw" style="text;html=1;strokeColor=none;fillColor=none;align=center;verticalAlign=middle;whiteSpace=wrap;rounded=0;" vertex="1" parent="1">
          <mxGeometry x="110" y="370" width="60" height="30" as="geometry" />
        </mxCell>
      </root>
    </mxGraphModel>
  </diagram>
</mxfile>
